<svg width="120" height="45" viewBox="0 0 120 45" fill="none" xmlns="http://www.w3.org/2000/svg">
<g clip-path="url(#clip0_29_454)">
<path fill-rule="evenodd" clip-rule="evenodd" d="M59.88 0V7.31H68.4V0H59.88ZM59.83 10.47V35.61H68.49V10.47H59.83ZM87.98 10.33H90.26V18.29H86.91C85.39 18.29 84.29 18.65 83.6 19.36C82.92 20.07 82.58 21.22 82.58 22.8V35.6H73.92V10.47H79.69L81.04 13.26C82.72 11.3 85.03 10.33 87.98 10.33ZM110.69 10.47H120L109.48 34.49C107.74 38.4 105.94 41.12 104.08 42.64C102.22 44.19 99.69 44.97 96.49 44.97H93.51V37.52H95.88C97.52 37.52 98.7 37.26 99.42 36.73C100.13 36.2 100.79 35.13 101.38 33.52L91 10.48H100.4L105.71 24.31L110.69 10.48V10.47ZM55.89 22.81C55.89 23.52 55.83 24.28 55.7 25.09H37.03C37.31 26.52 37.88 27.6 38.75 28.35C39.65 29.09 40.78 29.47 42.15 29.47C42.83 29.47 43.47 29.38 44.06 29.19C44.65 29 45.16 28.74 45.6 28.4C46.07 28.03 46.44 27.59 46.72 27.1H55.33C54.46 29.99 52.83 32.27 50.44 33.94C48.08 35.62 45.32 36.45 42.15 36.45C38.24 36.45 34.98 35.18 32.37 32.63C29.79 30.05 28.51 26.86 28.51 23.04C28.51 20.5 29.1 18.2 30.28 16.15C31.46 14.1 33.09 12.5 35.17 11.35C37.25 10.2 39.58 9.63 42.15 9.63C44.72 9.63 47.19 10.22 49.27 11.4C51.38 12.55 53.01 14.13 54.16 16.15C55.31 18.14 55.88 20.36 55.88 22.81H55.89ZM42.16 16.43C40.92 16.43 39.86 16.77 38.99 17.45C38.15 18.1 37.55 19.05 37.17 20.29H47.37C46.59 17.71 44.86 16.43 42.16 16.43ZM22.16 12.62C20.42 10.7 18.09 9.73 15.18 9.73C11.89 9.73 9.25 10.85 7.27 13.08L6.06 10.47H0V35.61H8.66V22.2C8.66 21.11 8.82 20.2 9.13 19.45C9.47 18.67 9.95 18.08 10.57 17.68C11.22 17.28 12 17.07 12.9 17.07C15.07 17.07 16.16 18.53 16.16 21.45V35.6H24.82V20.28C24.82 17.08 23.94 14.52 22.17 12.6L22.16 12.62Z" fill="white"/>
</g>
<defs>
<clipPath id="clip0_29_454">
<rect width="120" height="44.97" fill="white"/>
</clipPath>
</defs>
</svg>
